<?xml version="1.0" encoding="UTF-8"?>
<svg id="Layer_2" data-name="Layer 2" xmlns="http://www.w3.org/2000/svg" viewBox="0 0 68.69 68.68">
  <defs>
    <style>
      .cls-1 {
        fill: #390000;
        opacity: .9;
      }
    </style>
  </defs>
  <g id="Layer_1-2" data-name="Layer 1">
    <path class="cls-1" d="M68.2,33.36l-13.09-9.55c-.42-.31-1-.3-1.42.02s-.58.86-.39,1.36l2.08,5.59h-17.5V13.29l5.59,2.08c.5.19,1.05.02,1.36-.39.31-.42.31-.98.02-1.42L35.3.46c-.45-.61-1.47-.61-1.92,0l-9.55,13.09c-.31.42-.3,1,.02,1.42s.86.58,1.36.39l5.59-2.08v17.5H13.3l2.08-5.59c.19-.48.02-1.05-.39-1.36-.42-.31-.98-.31-1.41-.02L.48,33.36c-.31.22-.48.58-.48.95s.19.73.48.95l13.09,9.55c.2.16.45.23.7.23s.5-.08.72-.23c.42-.31.58-.86.39-1.36l-2.08-5.59h17.5v17.5l-5.59-2.08c-.48-.19-1.05-.02-1.36.39-.31.42-.33.98-.02,1.42l9.55,13.09c.22.31.58.48.95.48s.73-.19.95-.48l9.55-13.09c.31-.42.3-1-.02-1.42s-.86-.58-1.36-.39l-5.59,2.08v-17.5h17.5l-2.08,5.59c-.19.48-.02,1.05.39,1.36.22.16.47.23.72.23s.48-.08.7-.23l13.09-9.55c.31-.22.48-.58.48-.95s-.19-.73-.48-.95h0Z"/>
  </g>
</svg>